<svg width="1000" height="340" viewBox="0 0 1000 340" xmlns="http://www.w3.org/2000/svg">
  <defs><linearGradient id="bg4" x1="0" y1="0" x2="1" y2="1"><stop offset="0%" stop-color="#0D1416"/><stop offset="100%" stop-color="#141F22"/></linearGradient></defs>
  <rect width="1000" height="340" rx="10" fill="url(#bg4)"/>
  <g font-family="IBM Plex Sans, sans-serif">
    <g transform="translate(24,24)"><rect width="180" height="130" rx="8" fill="#141F22" stroke="#233033" stroke-width="1"/><circle cx="30" cy="30" r="12" fill="#1B140C" stroke="#E3A768"/><text x="90" y="65" text-anchor="middle" font-size="12" fill="#EDEAE2" font-weight="600">AI-Assisted</text><text x="90" y="82" text-anchor="middle" font-size="12" fill="#EDEAE2" font-weight="600">Alert Analysis</text></g>
    <g transform="translate(220,24)"><rect width="180" height="130" rx="8" fill="#141F22" stroke="#233033" stroke-width="1"/><circle cx="30" cy="30" r="12" fill="#1B140C" stroke="#E3A768"/><text x="90" y="65" text-anchor="middle" font-size="12" fill="#EDEAE2" font-weight="600">Behavioral</text><text x="90" y="82" text-anchor="middle" font-size="12" fill="#EDEAE2" font-weight="600">Correlation</text></g>
    <g transform="translate(416,24)"><rect width="180" height="130" rx="8" fill="#141F22" stroke="#233033" stroke-width="1"/><circle cx="30" cy="30" r="12" fill="#1B140C" stroke="#E3A768"/><text x="90" y="60" text-anchor="middle" font-size="12" fill="#EDEAE2" font-weight="600">Threat Intel</text><text x="90" y="77" text-anchor="middle" font-size="12" fill="#EDEAE2" font-weight="600">Enrichment</text></g>
    <g transform="translate(612,24)"><rect width="180" height="130" rx="8" fill="#141F22" stroke="#233033" stroke-width="1"/><circle cx="30" cy="30" r="12" fill="#1B140C" stroke="#E3A768"/><text x="90" y="60" text-anchor="middle" font-size="12" fill="#EDEAE2" font-weight="600">Intelligent</text><text x="90" y="77" text-anchor="middle" font-size="12" fill="#EDEAE2" font-weight="600">Prioritization</text></g>
    <g transform="translate(808,24)"><rect width="168" height="130" rx="8" fill="#141F22" stroke="#233033" stroke-width="1"/><circle cx="30" cy="30" r="12" fill="#1B140C" stroke="#E3A768"/><text x="84" y="60" text-anchor="middle" font-size="11.5" fill="#EDEAE2" font-weight="600">Investigation</text><text x="84" y="77" text-anchor="middle" font-size="11.5" fill="#EDEAE2" font-weight="600">Support</text></g>

    <g transform="translate(24,186)"><rect width="180" height="130" rx="8" fill="#141F22" stroke="#233033" stroke-width="1"/><circle cx="30" cy="30" r="12" fill="#1B140C" stroke="#E3A768"/><text x="90" y="60" text-anchor="middle" font-size="12" fill="#EDEAE2" font-weight="600">Semantic</text><text x="90" y="77" text-anchor="middle" font-size="12" fill="#EDEAE2" font-weight="600">Context Retrieval</text></g>
    <g transform="translate(220,186)"><rect width="180" height="130" rx="8" fill="#141F22" stroke="#233033" stroke-width="1"/><circle cx="30" cy="30" r="12" fill="#1B140C" stroke="#E3A768"/><text x="90" y="65" text-anchor="middle" font-size="12" fill="#EDEAE2" font-weight="600">Explainable AI</text></g>
    <g transform="translate(416,186)"><rect width="180" height="130" rx="8" fill="#141F22" stroke="#233033" stroke-width="1"/><circle cx="30" cy="30" r="12" fill="#1B140C" stroke="#E3A768"/><text x="90" y="55" text-anchor="middle" font-size="11" fill="#EDEAE2" font-weight="600">Human-in-the-Loop</text><text x="90" y="72" text-anchor="middle" font-size="11" fill="#EDEAE2" font-weight="600">Decision Support</text></g>
    <g transform="translate(612,186)"><rect width="180" height="130" rx="8" fill="#141F22" stroke="#233033" stroke-width="1"/><circle cx="30" cy="30" r="12" fill="#1B140C" stroke="#E3A768"/><text x="90" y="65" text-anchor="middle" font-size="12" fill="#EDEAE2" font-weight="600">Investigation</text><text x="90" y="82" text-anchor="middle" font-size="12" fill="#EDEAE2" font-weight="600">Timeline</text></g>
    <g transform="translate(808,186)"><rect width="168" height="130" rx="8" fill="#141F22" stroke="#233033" stroke-width="1"/><circle cx="30" cy="30" r="12" fill="#1B140C" stroke="#E3A768"/><text x="84" y="55" text-anchor="middle" font-size="11" fill="#EDEAE2" font-weight="600">Security Knowledge</text><text x="84" y="72" text-anchor="middle" font-size="11" fill="#EDEAE2" font-weight="600">Assistance</text></g>
  </g>
  <g>
    <circle cx="36" cy="30" r="12" fill="none" stroke="#E3A768" stroke-width="1.4" opacity="0.7"><animate attributeName="r" values="12;16;12" dur="2.4s" repeatCount="indefinite"/><animate attributeName="opacity" values="0.7;0;0.7" dur="2.4s" repeatCount="indefinite"/></circle>
  </g>
</svg>
